<?xml version="1.0" encoding="UTF-8"?>
<svg id="Layer_1" data-name="Layer 1" xmlns="http://www.w3.org/2000/svg" viewBox="0 0 939 945">
  <defs>
    <style>
      .cls-1 {
        fill: #0077b5;
        fill-rule: evenodd;
        stroke-width: 0px;
      }
    </style>
  </defs>
  <path class="cls-1" d="m49.25,121.73l271.19,338.73L49.25,799.19V121.73Zm795.97-48.38l-372.76,465.59c-.59.74-1.57.73-2.18-.02L97.53,73.35h747.69Zm44.53,725.84l-271.19-338.73L889.75,121.73v677.46Zm-312.66-286.93l287.74,359.4H74.16l287.74-359.4,93.02,116.18c8.02,10.01,21.05,10.12,28.96.24l93.21-116.42ZM37.48,0h864.05c20.61,0,37.48,25.11,37.48,55.81v833.38c0,30.7-16.86,55.81-37.48,55.81H37.48c-20.61,0-37.48-25.11-37.48-55.81V55.81C0,25.11,16.86,0,37.48,0Z"/>
</svg>