<?xml version="1.0" encoding="UTF-8"?>
<svg id="Layer_1" data-name="Layer 1" xmlns="http://www.w3.org/2000/svg" viewBox="0 0 906.05 920.59">
  <defs>
    <style>
      .cls-1 {
        fill: #0077b5;
        fill-rule: evenodd;
        stroke-width: 0px;
      }
    </style>
  </defs>
  <path class="cls-1" d="m365.66,233.45c-13.86-112.26-21.67-175.58-23.45-189.98-6.72-54.51-143.1-49.52-194.12-29.47C-67.34,98.64-6,339.08,72.45,484.28c148.94,238.96,314.13,378.53,495.56,418.7,141.98,41.99,325.77,13.2,337.56-132.99,1.61-19.98-.8-36.16-7.24-48.55-11-18.64-90.51-53.6-238.53-104.91-28.68-8.51-62.18,1.18-100.52,29.06-5.73,4.26-11.47,7.94-17.22,11.04-28.11,15.13-43.95,16.38-69.83-.16-78.97-50.5-198.64-228.63-223.81-282.07-6.26-21.37,4.95-37.92,33.62-49.63,55.46-20.46,83.34-50.9,83.62-91.31"/>
</svg>